{"title":"Pojken.Med.Guldbyxorna.2014.SWEDiSH.AC3.DVDRip.XviD-Svennen","uid":11931426,"size":1465819661,"categoryP":"video","categoryS":"movies","magnet":"?xt=urn:btih:bf5e2f87ac0becf151f6b09c1a7998073faeedfb&amp;dn=Pojken.Med.Guldbyxorna.2014.SWEDiSH.AC3.DVDRip.XviD-Svennen&amp;tr=udp%3A%2F%2Ftracker.openbittorrent.com%3A80&amp;tr=udp%3A%2F%2Fopen.demonii.com%3A1337&amp;tr=udp%3A%2F%2Ftracker.coppersurfer.tk%3A6969&amp;tr=udp%3A%2F%2Fexodus.desync.com%3A6969","seeders":0,"leechers":0,"uploader":null,"files":2,"time":1431810928,"description":"When Mats stumbles upon a pair of pants containing an unlimited amount of money, everything changes. Now he can buy everything he ever wanted, not knowing that powerful forces are tracking him down. The boy with the golden pants is an adventure film based on the Swedish classical bestseller by Max Lundgren.\n\nGeneral\nFormat                                   : AVI\nFormat/Info                              : Audio Video Interleave\nFile size                                : 1.37 GiB\nDuration                                 : 1h 34mn\nOverall bit rate                         : 2 058 Kbps\n\nVideo\nID                                       : 0\nFormat                                   : MPEG-4 Visual\nFormat profile                           : Advanced Simple@L5\nFormat settings, BVOP                    : 1\nFormat settings, QPel                    : No\nFormat settings, GMC                     : No warppoints\nFormat settings, Matrix                  : Default (MPEG)\nMuxing mode                              : Packed bitstream\nCodec ID                                 : XVID\nCodec ID/Hint                            : XviD\nDuration                                 : 1h 34mn\nBit rate                                 : 1 600 Kbps\nWidth                                    : 704 pixels\nHeight                                   : 288 pixels\nDisplay aspect ratio                     : 2.40:1\nFrame rate                               : 25.000 fps\nColor space                              : YUV\nChroma subsampling                       : 4:2:0\nBit depth                                : 8 bits\nScan type                                : Progressive\nCompression mode                         : Lossy\nBits/(Pixel*Frame)                       : 0.316\nStream size                              : 1.06 GiB (78%)\nWriting library                          : XviD 1.2.0.dev47 (UTC 2006-11-01)\n\nAudio\nID                                       : 1\nFormat                                   : AC-3\nFormat/Info                              : Audio Coding 3\nMode extension                           : CM (complete main)\nFormat settings, Endianness              : Big\nCodec ID                                 : 2000\nDuration                                 : 1h 34mn\nBit rate mode                            : Constant\nBit rate                                 : 448 Kbps\nChannel(s)                               : 6 channels\nChannel positions                        : Front: L C R, Side: L R, LFE\nSampling rate                            : 48.0 KHz\nBit depth                                : 16 bits\nCompression mode                         : Lossy\nStream size                              : 304 MiB (22%)\nAlignment                                : Split accross interleaves\nInterleave, duration                     : 40 ms (1.00 video frame)\nInterleave, preload duration             : 500 ms\n\nLooking suppliers for dvd \n\nContact me","torrent":{"xt":"urn:btih:bf5e2f87ac0becf151f6b09c1a7998073faeedfb","amp;dn":"Pojken.Med.Guldbyxorna.2014.SWEDiSH.AC3.DVDRip.XviD-Svennen","amp;tr":["udp%3A%2F%2Ftracker.openbittorrent.com%3A80","udp%3A%2F%2Fopen.demonii.com%3A1337","udp%3A%2F%2Ftracker.coppersurfer.tk%3A6969","udp%3A%2F%2Fexodus.desync.com%3A6969"],"infoHash":"bf5e2f87ac0becf151f6b09c1a7998073faeedfb","infoHashBuffer":{"type":"Buffer","data":[191,94,47,135,172,11,236,241,81,246,176,156,26,121,152,7,63,174,237,251]},"announce":[],"urlList":[]}}